<svg xmlns="http://www.w3.org/2000/svg" width="40" zoomAndPan="magnify" viewBox="-20 -20 340 340" height="40" preserveAspectRatio="xMidYMid meet" version="1.0"><circle cx="150" cy="150" r="150" fill="#F6D2A2"/><g transform="translate(-60,-5) scale(1.4)"><g transform="translate(86.230368, 74.824745)"><path d="M 25.328125 -41.328125 C 25.523438 -42.460938 25.976562 -43.285156 26.6875 -43.796875 C 27.394531 -44.304688 28.191406 -44.550781 29.078125 -44.53125 C 29.960938 -44.519531 30.804688 -44.285156 31.609375 -43.828125 C 32.421875 -43.378906 33.050781 -42.738281 33.5 -41.90625 C 33.945312 -41.082031 34.054688 -40.097656 33.828125 -38.953125 C 31.703125 -28.140625 30.242188 -17.222656 29.453125 -6.203125 C 29.378906 -5.054688 29.015625 -4.140625 28.359375 -3.453125 C 27.710938 -2.765625 26.9375 -2.3125 26.03125 -2.09375 C 25.125 -1.875 24.25 -1.875 23.40625 -2.09375 C 22.5625 -2.3125 21.863281 -2.765625 21.3125 -3.453125 C 20.757812 -4.140625 20.523438 -5.054688 20.609375 -6.203125 C 20.722656 -8.046875 20.867188 -9.882812 21.046875 -11.71875 C 21.222656 -13.550781 21.410156 -15.390625 21.609375 -17.234375 L 13.515625 -17.234375 C 13.242188 -14.910156 12.96875 -12.578125 12.6875 -10.234375 C 12.414062 -7.898438 12.140625 -5.550781 11.859375 -3.1875 C 11.703125 -2.082031 11.289062 -1.195312 10.625 -0.53125 C 9.957031 0.132812 9.171875 0.585938 8.265625 0.828125 C 7.359375 1.066406 6.472656 1.078125 5.609375 0.859375 C 4.742188 0.640625 4.054688 0.1875 3.546875 -0.5 C 3.035156 -1.1875 2.859375 -2.082031 3.015625 -3.1875 C 3.367188 -6.457031 3.738281 -9.710938 4.125 -12.953125 C 4.519531 -16.203125 4.894531 -19.441406 5.25 -22.671875 C 5.445312 -24.242188 5.644531 -25.804688 5.84375 -27.359375 C 6.039062 -28.910156 6.21875 -30.472656 6.375 -32.046875 C 6.53125 -33.429688 6.65625 -34.890625 6.75 -36.421875 C 6.851562 -37.953125 7.160156 -39.390625 7.671875 -40.734375 C 8.066406 -41.796875 8.664062 -42.5625 9.46875 -43.03125 C 10.28125 -43.5 11.144531 -43.722656 12.0625 -43.703125 C 12.988281 -43.691406 13.847656 -43.457031 14.640625 -43 C 15.429688 -42.550781 15.992188 -41.929688 16.328125 -41.140625 C 16.660156 -40.359375 16.609375 -39.4375 16.171875 -38.375 C 15.703125 -37.070312 15.425781 -35.660156 15.34375 -34.140625 C 15.269531 -32.628906 15.15625 -31.207031 15 -29.875 C 14.914062 -29.238281 14.832031 -28.601562 14.75 -27.96875 C 14.675781 -27.34375 14.597656 -26.71875 14.515625 -26.09375 L 22.734375 -26.09375 C 23.085938 -28.644531 23.476562 -31.191406 23.90625 -33.734375 C 24.34375 -36.273438 24.816406 -38.804688 25.328125 -41.328125 Z M 25.328125 -41.328125 "/></g><g transform="translate(123.115097, 74.824745)"><path d="M 23.84375 -40.375 C 23.96875 -41.519531 24.375 -42.375 25.0625 -42.9375 C 25.75 -43.507812 26.535156 -43.832031 27.421875 -43.90625 C 28.304688 -43.988281 29.171875 -43.832031 30.015625 -43.4375 C 30.859375 -43.050781 31.523438 -42.460938 32.015625 -41.671875 C 32.515625 -40.890625 32.6875 -39.945312 32.53125 -38.84375 C 32.207031 -36.28125 31.910156 -33.570312 31.640625 -30.71875 C 31.367188 -27.875 30.96875 -25.015625 30.4375 -22.140625 C 29.90625 -19.265625 29.132812 -16.523438 28.125 -13.921875 C 27.125 -11.328125 25.753906 -9 24.015625 -6.9375 C 22.285156 -4.875 20.066406 -3.210938 17.359375 -1.953125 C 16.335938 -1.472656 15.398438 -1.367188 14.546875 -1.640625 C 13.703125 -1.921875 13.023438 -2.425781 12.515625 -3.15625 C 12.003906 -3.882812 11.695312 -4.710938 11.59375 -5.640625 C 11.5 -6.566406 11.65625 -7.453125 12.0625 -8.296875 C 12.476562 -9.140625 13.195312 -9.78125 14.21875 -10.21875 C 15.5625 -10.84375 16.65625 -11.6875 17.5 -12.75 C 18.34375 -13.8125 19.023438 -14.992188 19.546875 -16.296875 C 17.929688 -15.742188 16.285156 -15.476562 14.609375 -15.5 C 12.929688 -15.519531 11.289062 -15.941406 9.6875 -16.765625 C 7.5625 -17.828125 5.972656 -19.320312 4.921875 -21.25 C 3.878906 -23.175781 3.257812 -25.289062 3.0625 -27.59375 C 2.875 -29.894531 2.984375 -32.195312 3.390625 -34.5 C 3.804688 -36.800781 4.425781 -38.878906 5.25 -40.734375 C 5.6875 -41.796875 6.316406 -42.515625 7.140625 -42.890625 C 7.960938 -43.265625 8.816406 -43.367188 9.703125 -43.203125 C 10.585938 -43.046875 11.382812 -42.671875 12.09375 -42.078125 C 12.800781 -41.492188 13.285156 -40.769531 13.546875 -39.90625 C 13.804688 -39.039062 13.71875 -38.078125 13.28125 -37.015625 C 12.96875 -36.347656 12.648438 -35.441406 12.328125 -34.296875 C 12.015625 -33.148438 11.789062 -31.945312 11.65625 -30.6875 C 11.519531 -29.4375 11.566406 -28.28125 11.796875 -27.21875 C 12.035156 -26.15625 12.585938 -25.347656 13.453125 -24.796875 C 14.242188 -24.242188 15.101562 -24.066406 16.03125 -24.265625 C 16.957031 -24.460938 17.84375 -24.882812 18.6875 -25.53125 C 19.53125 -26.175781 20.285156 -26.910156 20.953125 -27.734375 C 21.617188 -28.566406 22.148438 -29.316406 22.546875 -29.984375 C 22.785156 -31.710938 23.003906 -33.441406 23.203125 -35.171875 C 23.398438 -36.910156 23.613281 -38.644531 23.84375 -40.375 Z M 23.84375 -40.375 "/></g><g transform="translate(158.642464, 74.824745)"><path d="M 34.53125 -33.59375 C 34.769531 -31.46875 34.789062 -29.15625 34.59375 -26.65625 C 34.394531 -24.15625 33.941406 -21.65625 33.234375 -19.15625 C 32.523438 -16.65625 31.53125 -14.332031 30.25 -12.1875 C 28.96875 -10.039062 27.394531 -8.226562 25.53125 -6.75 C 23.664062 -5.28125 21.492188 -4.328125 19.015625 -3.890625 C 16.410156 -3.460938 14.191406 -3.671875 12.359375 -4.515625 C 10.535156 -5.359375 9.019531 -6.632812 7.8125 -8.34375 C 6.613281 -10.0625 5.660156 -12.050781 4.953125 -14.3125 C 4.242188 -16.570312 3.742188 -18.910156 3.453125 -21.328125 C 3.160156 -23.753906 3.003906 -26.085938 2.984375 -28.328125 C 2.960938 -30.578125 3.007812 -32.523438 3.125 -34.171875 C 3.207031 -35.316406 3.570312 -36.222656 4.21875 -36.890625 C 4.863281 -37.554688 5.628906 -38.007812 6.515625 -38.25 C 7.398438 -38.488281 8.273438 -38.488281 9.140625 -38.25 C 10.015625 -38.007812 10.722656 -37.554688 11.265625 -36.890625 C 11.816406 -36.222656 12.054688 -35.316406 11.984375 -34.171875 C 11.941406 -33.585938 11.898438 -32.597656 11.859375 -31.203125 C 11.828125 -29.804688 11.847656 -28.203125 11.921875 -26.390625 C 12.003906 -24.578125 12.171875 -22.765625 12.421875 -20.953125 C 12.679688 -19.140625 13.054688 -17.523438 13.546875 -16.109375 C 14.035156 -14.691406 14.691406 -13.675781 15.515625 -13.0625 C 16.347656 -12.457031 17.394531 -12.453125 18.65625 -13.046875 C 20.382812 -13.828125 21.757812 -15.035156 22.78125 -16.671875 C 23.8125 -18.304688 24.5625 -20.125 25.03125 -22.125 C 25.5 -24.132812 25.769531 -26.144531 25.84375 -28.15625 C 25.925781 -30.164062 25.867188 -31.976562 25.671875 -33.59375 C 25.515625 -34.726562 25.691406 -35.628906 26.203125 -36.296875 C 26.722656 -36.972656 27.40625 -37.414062 28.25 -37.625 C 29.09375 -37.84375 29.96875 -37.84375 30.875 -37.625 C 31.78125 -37.414062 32.578125 -36.960938 33.265625 -36.265625 C 33.953125 -35.578125 34.375 -34.6875 34.53125 -33.59375 Z M 34.53125 -33.59375 "/></g><g transform="translate(196.294393, 74.824745)"><path d="M 5.609375 -36.421875 C 5.722656 -37.523438 6.113281 -38.421875 6.78125 -39.109375 C 7.457031 -39.796875 8.242188 -40.25 9.140625 -40.46875 C 10.046875 -40.6875 10.929688 -40.6875 11.796875 -40.46875 C 12.671875 -40.25 13.363281 -39.804688 13.875 -39.140625 C 14.382812 -38.472656 14.582031 -37.566406 14.46875 -36.421875 C 13.320312 -25.753906 12.4375 -15.070312 11.8125 -4.375 C 11.726562 -3.226562 11.367188 -2.320312 10.734375 -1.65625 C 10.109375 -0.988281 9.351562 -0.535156 8.46875 -0.296875 C 7.582031 -0.0546875 6.707031 -0.0546875 5.84375 -0.296875 C 4.976562 -0.535156 4.257812 -0.988281 3.6875 -1.65625 C 3.113281 -2.320312 2.867188 -3.226562 2.953125 -4.375 C 3.578125 -15.070312 4.460938 -25.753906 5.609375 -36.421875 Z M 5.609375 -36.421875 "/></g></g><g transform="translate(-18,12) scale(0.2, 0.2)" stroke-width="28" stroke-linecap="round"><rect x="360" y="470" width="960" height="740" rx="40" fill="#698397"/><rect x="369" y="640" width="942" height="552" fill="#e2e7f0"/><g fill="none" stroke="black"><rect x="369" y="479" width="942" height="722" rx="30"/><line x1="369" y1="640" x2="1301" y2="640"/><g transform="translate(10,0)"><path d="M 495 555 A 38 38 1 1 1 450 525"/><line x1="450" y1="525" x2="432" y2="515"/><line x1="450" y1="525" x2="443" y2="542"/></g><circle cx="589" cy="548" r="32"/><line x1="614" y1="571" x2="640" y2="597"/><line x1="700" y1="586" x2="970" y2="586"/><line x1="700" y1="533" x2="970" y2="533"/><line x1="1030" y1="560" x2="1120" y2="560"/><line x1="1030" y1="560" x2="1060" y2="530"/><line x1="1030" y1="560" x2="1060" y2="590"/><line x1="1250" y1="560" x2="1160" y2="560"/><line x1="1250" y1="560" x2="1220" y2="530"/><line x1="1250" y1="560" x2="1220" y2="590"/><rect x="421" y="700" width="300" height="260" rx="3" fill="#75D059"/><rect x="421" y="1010" width="300" height="140" rx="3" fill="#75D059"/><rect x="775" y="700" width="135" height="110" rx="6" ry="6" fill="#8D5CA9"/><rect x="950" y="700" width="135" height="110" rx="6" ry="6" fill="#75CF59"/><rect x="1125" y="700" width="135" height="110" rx="5" ry="5" fill="#FB5674"/><rect x="775" y="850" width="135" height="110" rx="6" ry="6" fill="#E74C3C"/><rect x="950" y="850" width="135" height="110" rx="6" ry="6" fill="#FBBF0F"/><rect x="1125" y="850" width="135" height="110" rx="5" ry="5" fill="#F8951C"/><line x1="769" y1="1020.5" x2="822" y2="1020.5"/><line x1="769" y1="1081.5" x2="822" y2="1081.5"/><line x1="769" y1="1142.5" x2="822" y2="1142.5"/><line x1="870" y1="1081.5" x2="1262" y2="1081.5"/><line x1="870" y1="1020.5" x2="1261" y2="1020.5"/><line x1="870" y1="1142.5" x2="1262" y2="1142.5"/></g></g></svg>